<svg width="32" height="33" viewBox="0 0 32 33" fill="none" xmlns="http://www.w3.org/2000/svg">
<path fill-rule="evenodd" clip-rule="evenodd" d="M16 0.608398C7.16344 0.608398 0 7.77184 0 16.6084C0 25.445 7.16344 32.6084 16 32.6084C24.8366 32.6084 32 25.445 32 16.6084C32 7.77184 24.8366 0.608398 16 0.608398ZM12.4823 8.12675C13.3925 8.08533 13.6834 8.0752 16.0009 8.0752H15.9983C18.3165 8.0752 18.6063 8.08533 19.5165 8.12675C20.425 8.16835 21.0454 8.31218 21.5894 8.5232C22.1512 8.74098 22.6259 9.03254 23.1005 9.50721C23.5752 9.98153 23.8668 10.4576 24.0854 11.0189C24.2952 11.5615 24.4392 12.1815 24.4819 13.09C24.5228 14.0002 24.5335 14.2911 24.5335 16.6086C24.5335 18.9262 24.5228 19.2163 24.4819 20.1265C24.4392 21.0346 24.2952 21.6549 24.0854 22.1977C23.8668 22.7587 23.5752 23.2348 23.1005 23.7091C22.6264 24.1838 22.151 24.4761 21.59 24.694C21.047 24.9051 20.4262 25.0489 19.5178 25.0905C18.6075 25.1319 18.3176 25.142 15.9999 25.142C13.6825 25.142 13.3918 25.1319 12.4816 25.0905C11.5733 25.0489 10.953 24.9051 10.4101 24.694C9.84921 24.4761 9.37312 24.1838 8.89898 23.7091C8.42449 23.2348 8.13293 22.7587 7.91479 22.1975C7.70394 21.6549 7.56012 21.0348 7.51834 20.1263C7.4771 19.2161 7.46679 18.9262 7.46679 16.6086C7.46679 14.2911 7.47745 14.0001 7.51817 13.0898C7.55905 12.1817 7.70306 11.5615 7.91461 11.0187C8.13328 10.4576 8.42484 9.98153 8.89951 9.50721C9.37383 9.03272 9.84992 8.74116 10.4112 8.5232C10.9538 8.31218 11.5739 8.16835 12.4823 8.12675Z" fill="#646464"/>
<path fill-rule="evenodd" clip-rule="evenodd" d="M15.2355 9.61248C15.3841 9.61225 15.544 9.61232 15.7166 9.6124L16.001 9.61248C18.2794 9.61248 18.5495 9.62066 19.4492 9.66155C20.2812 9.6996 20.7328 9.83862 21.0336 9.95542C21.4318 10.1101 21.7157 10.295 22.0142 10.5937C22.3129 10.8923 22.4978 11.1768 22.6528 11.575C22.7696 11.8754 22.9088 12.327 22.9467 13.159C22.9876 14.0586 22.9964 14.3288 22.9964 16.6062C22.9964 18.8835 22.9876 19.1537 22.9467 20.0533C22.9086 20.8853 22.7696 21.3369 22.6528 21.6373C22.4981 22.0355 22.3129 22.3191 22.0142 22.6176C21.7155 22.9163 21.432 23.1012 21.0336 23.2558C20.7331 23.3732 20.2812 23.5118 19.4492 23.5499C18.5496 23.5908 18.2794 23.5997 16.001 23.5997C13.7224 23.5997 13.4524 23.5908 12.5528 23.5499C11.7208 23.5115 11.2692 23.3724 10.9682 23.2556C10.57 23.101 10.2856 22.9161 9.98689 22.6174C9.68822 22.3188 9.50333 22.035 9.34831 21.6366C9.23151 21.3362 9.09231 20.8846 9.05444 20.0526C9.01355 19.153 9.00537 18.8828 9.00537 16.604C9.00537 14.3252 9.01355 14.0564 9.05444 13.1569C9.09248 12.3249 9.23151 11.8733 9.34831 11.5725C9.50298 11.1743 9.68822 10.8898 9.98689 10.5912C10.2856 10.2925 10.57 10.1076 10.9682 9.95258C11.269 9.83524 11.7208 9.69657 12.5528 9.65835C13.34 9.6228 13.6451 9.61213 15.2355 9.61035V9.61248ZM20.5559 11.0293C19.9906 11.0293 19.5319 11.4875 19.5319 12.053C19.5319 12.6183 19.9906 13.077 20.5559 13.077C21.1212 13.077 21.5799 12.6183 21.5799 12.053C21.5799 11.4876 21.1212 11.029 20.5559 11.029V11.0293ZM11.6188 16.6072C11.6188 14.1871 13.5809 12.225 16.0009 12.2249C18.421 12.2249 20.3826 14.1871 20.3826 16.6072C20.3826 19.0273 18.4212 20.9886 16.0011 20.9886C13.581 20.9886 11.6188 19.0273 11.6188 16.6072Z" fill="#646464"/>
<path fill-rule="evenodd" clip-rule="evenodd" d="M16.0007 13.7633C17.5716 13.7633 18.8452 15.0367 18.8452 16.6078C18.8452 18.1786 17.5716 19.4523 16.0007 19.4523C14.4297 19.4523 13.1562 18.1786 13.1562 16.6078C13.1562 15.0367 14.4297 13.7633 16.0007 13.7633V13.7633Z" fill="#646464"/>
</svg>
