<svg width="196" height="47" viewBox="0 0 196 47" fill="none" xmlns="http://www.w3.org/2000/svg">
<path d="M51.652 32.6084C51.4787 32.6084 51.3313 32.5477 51.21 32.4264C51.0887 32.3051 51.028 32.1577 51.028 31.9844V15.0584C51.028 14.8677 51.08 14.7117 51.184 14.5904C51.3053 14.4691 51.4613 14.4084 51.652 14.4084H57.996C63.092 14.4084 65.692 16.7657 65.796 21.4804C65.8307 22.4857 65.848 23.1617 65.848 23.5084C65.848 23.8377 65.8307 24.5051 65.796 25.5104C65.7267 27.9371 65.0767 29.7311 63.846 30.8924C62.6153 32.0364 60.7087 32.6084 58.126 32.6084H51.652ZM57.996 29.6184C59.452 29.6184 60.5007 29.2977 61.142 28.6564C61.7833 27.9977 62.1213 26.9231 62.156 25.4324C62.1907 24.3924 62.208 23.7424 62.208 23.4824C62.208 23.2051 62.1907 22.5637 62.156 21.5584C62.1213 20.1371 61.7573 19.0884 61.064 18.4124C60.388 17.7364 59.322 17.3984 57.866 17.3984H54.642V29.6184H57.996ZM69.9333 32.6084C69.7599 32.6084 69.6126 32.5477 69.4913 32.4264C69.3699 32.3051 69.3093 32.1577 69.3093 31.9844V15.0584C69.3093 14.8677 69.3613 14.7117 69.4653 14.5904C69.5866 14.4691 69.7426 14.4084 69.9333 14.4084H81.3733C81.5639 14.4084 81.7199 14.4691 81.8413 14.5904C81.9626 14.7117 82.0233 14.8677 82.0233 15.0584V16.7744C82.0233 16.9651 81.9626 17.1211 81.8413 17.2424C81.7199 17.3464 81.5639 17.3984 81.3733 17.3984H72.8193V22.0004H80.8013C80.9919 22.0004 81.1479 22.0611 81.2693 22.1824C81.3906 22.2864 81.4513 22.4337 81.4513 22.6244V24.2364C81.4513 24.4271 81.3906 24.5831 81.2693 24.7044C81.1479 24.8084 80.9919 24.8604 80.8013 24.8604H72.8193V29.6184H81.5813C81.7719 29.6184 81.9279 29.6791 82.0493 29.8004C82.1706 29.9217 82.2313 30.0777 82.2313 30.2684V31.9844C82.2313 32.1751 82.1706 32.3311 82.0493 32.4524C81.9279 32.5564 81.7719 32.6084 81.5813 32.6084H69.9333ZM91.8011 32.8684C90.2584 32.8684 88.9324 32.6344 87.8231 32.1664C86.7137 31.6984 85.8731 31.0831 85.3011 30.3204C84.7291 29.5577 84.4257 28.7344 84.3911 27.8504C84.3911 27.6944 84.4431 27.5644 84.5471 27.4604C84.6511 27.3564 84.7811 27.3044 84.9371 27.3044H87.2511C87.4591 27.3044 87.6151 27.3477 87.7191 27.4344C87.8404 27.5037 87.9531 27.6251 88.0571 27.7984C88.2304 28.3877 88.6291 28.8817 89.2531 29.2804C89.8771 29.6791 90.7264 29.8784 91.8011 29.8784C93.0317 29.8784 93.9591 29.6791 94.5831 29.2804C95.2071 28.8644 95.5191 28.2924 95.5191 27.5644C95.5191 27.0791 95.3544 26.6804 95.0251 26.3684C94.7131 26.0564 94.2364 25.7877 93.5951 25.5624C92.9711 25.3371 92.0351 25.0597 90.7871 24.7304C88.7417 24.2451 87.2424 23.6037 86.2891 22.8064C85.3531 21.9917 84.8851 20.8391 84.8851 19.3484C84.8851 18.3431 85.1537 17.4504 85.6911 16.6704C86.2457 15.8904 87.0344 15.2751 88.0571 14.8244C89.0971 14.3737 90.3017 14.1484 91.6711 14.1484C93.0924 14.1484 94.3231 14.3997 95.3631 14.9024C96.4031 15.4051 97.1917 16.0377 97.7291 16.8004C98.2837 17.5457 98.5784 18.2911 98.6131 19.0364C98.6131 19.1924 98.5611 19.3224 98.4571 19.4264C98.3531 19.5304 98.2231 19.5824 98.0671 19.5824H95.6491C95.2851 19.5824 95.0337 19.4177 94.8951 19.0884C94.7911 18.5337 94.4444 18.0744 93.8551 17.7104C93.2657 17.3291 92.5377 17.1384 91.6711 17.1384C90.7004 17.1384 89.9377 17.3204 89.3831 17.6844C88.8284 18.0484 88.5511 18.5771 88.5511 19.2704C88.5511 19.7557 88.6897 20.1544 88.9671 20.4664C89.2444 20.7784 89.6777 21.0557 90.2671 21.2984C90.8737 21.5411 91.7404 21.8097 92.8671 22.1044C94.3924 22.4511 95.6057 22.8411 96.5071 23.2744C97.4257 23.7077 98.1017 24.2537 98.5351 24.9124C98.9684 25.5711 99.1851 26.4117 99.1851 27.4344C99.1851 28.5437 98.8731 29.5144 98.2491 30.3464C97.6424 31.1611 96.7757 31.7851 95.6491 32.2184C94.5397 32.6517 93.2571 32.8684 91.8011 32.8684ZM102.789 32.6084C102.615 32.6084 102.468 32.5477 102.347 32.4264C102.225 32.3051 102.165 32.1577 102.165 31.9844V15.0324C102.165 14.8417 102.225 14.6944 102.347 14.5904C102.468 14.4691 102.615 14.4084 102.789 14.4084H105.233C105.423 14.4084 105.571 14.4691 105.675 14.5904C105.796 14.6944 105.857 14.8417 105.857 15.0324V31.9844C105.857 32.1577 105.796 32.3051 105.675 32.4264C105.571 32.5477 105.423 32.6084 105.233 32.6084H102.789ZM117.006 32.8684C114.632 32.8684 112.777 32.2531 111.442 31.0224C110.125 29.7917 109.423 28.0757 109.336 25.8744C109.319 25.3717 109.31 24.5657 109.31 23.4564C109.31 22.3471 109.319 21.5411 109.336 21.0384C109.423 18.8891 110.134 17.2077 111.468 15.9944C112.82 14.7637 114.666 14.1484 117.006 14.1484C118.601 14.1484 119.97 14.4171 121.114 14.9544C122.258 15.4917 123.125 16.1677 123.714 16.9824C124.304 17.7797 124.616 18.5684 124.65 19.3484V19.4004C124.65 19.5391 124.598 19.6604 124.494 19.7644C124.39 19.8511 124.26 19.8944 124.104 19.8944H121.426C121.253 19.8944 121.123 19.8684 121.036 19.8164C120.95 19.7471 120.872 19.6344 120.802 19.4784C120.56 18.8371 120.135 18.2911 119.528 17.8404C118.922 17.3724 118.081 17.1384 117.006 17.1384C115.793 17.1384 114.84 17.4677 114.146 18.1264C113.47 18.7851 113.106 19.7991 113.054 21.1684C113.037 21.6711 113.028 22.4337 113.028 23.4564C113.028 24.4617 113.037 25.2244 113.054 25.7444C113.158 28.5004 114.493 29.8784 117.058 29.8784C118.289 29.8784 119.277 29.5491 120.022 28.8904C120.768 28.2144 121.14 27.2177 121.14 25.9004V25.0944H117.968C117.778 25.0944 117.622 25.0337 117.5 24.9124C117.396 24.7911 117.344 24.6351 117.344 24.4444V23.0664C117.344 22.8757 117.396 22.7197 117.5 22.5984C117.622 22.4771 117.778 22.4164 117.968 22.4164H124.182C124.373 22.4164 124.52 22.4771 124.624 22.5984C124.746 22.7197 124.806 22.8757 124.806 23.0664V25.7964C124.806 27.2351 124.486 28.4917 123.844 29.5664C123.22 30.6237 122.319 31.4384 121.14 32.0104C119.962 32.5824 118.584 32.8684 117.006 32.8684ZM128.763 32.6084C128.59 32.6084 128.443 32.5477 128.321 32.4264C128.2 32.3051 128.139 32.1577 128.139 31.9844V15.0584C128.139 14.8677 128.191 14.7117 128.295 14.5904C128.417 14.4691 128.573 14.4084 128.763 14.4084H130.765C130.973 14.4084 131.129 14.4517 131.233 14.5384C131.337 14.6077 131.433 14.7031 131.519 14.8244L139.007 26.4724V15.0584C139.007 14.8677 139.059 14.7117 139.163 14.5904C139.285 14.4691 139.441 14.4084 139.631 14.4084H141.815C142.006 14.4084 142.162 14.4691 142.283 14.5904C142.405 14.7117 142.465 14.8677 142.465 15.0584V31.9584C142.465 32.1491 142.405 32.3051 142.283 32.4264C142.162 32.5477 142.015 32.6084 141.841 32.6084H139.813C139.519 32.6084 139.267 32.4697 139.059 32.1924L131.597 20.8044V31.9844C131.597 32.1751 131.537 32.3311 131.415 32.4524C131.294 32.5564 131.138 32.6084 130.947 32.6084H128.763ZM146.132 32.6084C145.941 32.6084 145.785 32.5477 145.664 32.4264C145.56 32.3051 145.508 32.1491 145.508 31.9584V30.1384C145.508 29.8437 145.569 29.6184 145.69 29.4624C145.811 29.2891 145.881 29.1937 145.898 29.1764L154.946 17.4764H146.392C146.219 17.4764 146.071 17.4157 145.95 17.2944C145.829 17.1731 145.768 17.0257 145.768 16.8524V15.0584C145.768 14.8677 145.82 14.7117 145.924 14.5904C146.045 14.4691 146.201 14.4084 146.392 14.4084H158.82C159.011 14.4084 159.167 14.4691 159.288 14.5904C159.409 14.7117 159.47 14.8677 159.47 15.0584V16.8524C159.47 17.1644 159.357 17.4677 159.132 17.7624L150.266 29.5144H159.106C159.297 29.5144 159.453 29.5751 159.574 29.6964C159.695 29.8177 159.756 29.9737 159.756 30.1644V31.9844C159.756 32.1751 159.695 32.3311 159.574 32.4524C159.453 32.5564 159.297 32.6084 159.106 32.6084H146.132ZM169.64 32.8684C167.248 32.8684 165.393 32.2531 164.076 31.0224C162.776 29.7917 162.082 28.0584 161.996 25.8224C161.978 25.3544 161.97 24.5917 161.97 23.5344C161.97 22.4597 161.978 21.6797 161.996 21.1944C162.082 18.9757 162.784 17.2511 164.102 16.0204C165.436 14.7724 167.282 14.1484 169.64 14.1484C171.182 14.1484 172.526 14.4171 173.67 14.9544C174.814 15.4744 175.698 16.1937 176.322 17.1124C176.946 18.0137 177.275 19.0364 177.31 20.1804V20.2324C177.31 20.3711 177.249 20.4924 177.128 20.5964C177.024 20.6831 176.902 20.7264 176.764 20.7264H174.294C174.086 20.7264 173.93 20.6831 173.826 20.5964C173.722 20.5097 173.635 20.3451 173.566 20.1024C173.288 19.0104 172.829 18.2477 172.188 17.8144C171.546 17.3637 170.688 17.1384 169.614 17.1384C167.118 17.1384 165.818 18.5337 165.714 21.3244C165.696 21.7924 165.688 22.5117 165.688 23.4824C165.688 24.4531 165.696 25.1897 165.714 25.6924C165.818 28.4831 167.118 29.8784 169.614 29.8784C170.688 29.8784 171.546 29.6531 172.188 29.2024C172.846 28.7517 173.306 27.9891 173.566 26.9144C173.618 26.6717 173.696 26.5071 173.8 26.4204C173.921 26.3337 174.086 26.2904 174.294 26.2904H176.764C176.92 26.2904 177.05 26.3424 177.154 26.4464C177.275 26.5504 177.327 26.6804 177.31 26.8364C177.275 27.9804 176.946 29.0117 176.322 29.9304C175.698 30.8317 174.814 31.5511 173.67 32.0884C172.526 32.6084 171.182 32.8684 169.64 32.8684ZM185.319 32.6084C185.145 32.6084 184.998 32.5477 184.877 32.4264C184.755 32.3051 184.695 32.1577 184.695 31.9844V26.1084L178.559 15.2404C178.507 15.1537 178.481 15.0584 178.481 14.9544C178.481 14.7984 178.533 14.6684 178.637 14.5644C178.741 14.4604 178.862 14.4084 179.001 14.4084H181.315C181.505 14.4084 181.661 14.4604 181.783 14.5644C181.921 14.6684 182.025 14.7811 182.095 14.9024L186.515 22.4684L190.909 14.9024C191.117 14.5731 191.385 14.4084 191.715 14.4084H194.003C194.159 14.4084 194.289 14.4604 194.393 14.5644C194.497 14.6684 194.549 14.7984 194.549 14.9544C194.549 15.0584 194.523 15.1537 194.471 15.2404L188.335 26.1084V31.9844C188.335 32.1577 188.274 32.3051 188.153 32.4264C188.031 32.5477 187.875 32.6084 187.685 32.6084H185.319Z" fill="#3D3D3F"/>
<g opacity="0.95">
<path d="M20.7972 32.0236C19.5321 32.0292 18.2838 31.7227 17.1546 31.1294C16.0254 30.536 15.0474 29.6725 14.3011 28.6099L9.09882 31.7183C9.29678 31.9557 9.53113 32.1573 9.79246 32.315L19.0498 37.8657C19.5908 38.1532 20.1896 38.3031 20.7972 38.3031C21.4047 38.3031 22.0035 38.1532 22.5446 37.8657L31.8019 32.315C32.0632 32.1573 32.2976 31.9557 32.4955 31.7183L27.3067 28.5544C26.5647 29.6292 25.5872 30.5045 24.4551 31.1078C23.3231 31.7111 22.0691 32.0251 20.7972 32.0236Z" fill="url(#paint0_linear_0_496)"/>
<path d="M12.6529 23.6472C12.6577 21.6737 13.4247 19.7711 14.8074 18.303C16.1901 16.835 18.0915 15.9044 20.1481 15.6891V9.70728C19.8361 9.76915 19.5359 9.87651 19.2582 10.0256L9.60759 15.331C9.08305 15.6657 8.64689 16.1117 8.33331 16.6341C8.01967 17.1564 7.83711 17.7409 7.79987 18.3418V28.9525C7.80416 29.2587 7.85563 29.5627 7.95279 29.8545L13.3761 26.8702C12.9018 25.8558 12.6555 24.7579 12.6529 23.6472Z" fill="url(#paint1_linear_0_496)"/>
<path d="M32.082 15.3273L22.9394 10.0254C22.6763 9.87638 22.3919 9.76908 22.0963 9.70728V15.6719C23.3383 15.8135 24.53 16.2465 25.5753 16.9362C26.6206 17.6258 27.4904 18.5527 28.1145 19.6424C28.7387 20.732 29.0998 21.9539 29.1688 23.2097C29.2378 24.4654 29.0128 25.7199 28.5119 26.8722L33.6498 29.8545C33.7418 29.5628 33.7906 29.2591 33.7946 28.9532V18.3494C33.7613 17.7466 33.5893 17.1599 33.2921 16.6354C32.9948 16.1109 32.5807 15.6631 32.082 15.3273Z" fill="url(#paint2_linear_0_496)"/>
<path d="M38.7421 10.0133L23.6492 1.2845C22.7641 0.839895 21.7874 0.608398 20.7971 0.608398C19.8068 0.608398 18.8302 0.839895 17.945 1.2845L2.85206 10.0133C2.02362 10.5538 1.33387 11.2817 0.838384 12.1384C0.342958 12.995 0.0557622 13.9563 0 14.9446V32.4021C0.0547224 33.3925 0.341398 34.3561 0.836824 35.2151C1.33225 36.0741 2.02258 36.8044 2.85206 37.347L17.945 46.076C18.8302 46.5206 19.8068 46.752 20.7971 46.752C21.7874 46.752 22.7641 46.5206 23.6492 46.076L38.7421 37.347C39.5716 36.8044 40.2619 36.0741 40.7574 35.2151C41.2528 34.3561 41.5395 33.3925 41.5942 32.4021V14.9446C41.5384 13.9563 41.2512 12.995 40.7558 12.1384C40.2603 11.2817 39.5706 10.5538 38.7421 10.0133ZM36.8043 30.3941C36.76 31.1549 36.5382 31.8947 36.1566 32.5542C35.7751 33.2137 35.2444 33.7744 34.6072 34.1916L22.9805 40.9123C22.3013 41.2557 21.5511 41.4346 20.7903 41.4346C20.0294 41.4346 19.2792 41.2557 18.6001 40.9123L6.98698 34.1916C6.34974 33.7744 5.81909 33.2137 5.4376 32.5542C5.05603 31.8947 4.83422 31.1549 4.7899 30.3941V16.9663C4.83422 16.2054 5.05603 15.4656 5.4376 14.8062C5.81909 14.1467 6.34974 13.5859 6.98698 13.1687L18.5864 6.44803C19.2655 6.10468 20.0157 5.92576 20.7766 5.92576C21.5375 5.92576 22.2877 6.10468 22.9669 6.44803L34.5936 13.1687C35.2333 13.5844 35.7667 14.1445 36.1506 14.8041C36.5346 15.4636 36.7585 16.2043 36.8043 16.9663V30.3941Z" fill="url(#paint3_linear_0_496)"/>
<path d="M14.9467 23.6801C14.9467 24.7727 15.2897 25.8407 15.9324 26.7492C16.5751 27.6577 17.4887 28.3657 18.5575 28.7838C19.6263 29.2019 20.8024 29.3113 21.9371 29.0982C23.0717 28.885 24.1139 28.3589 24.9319 27.5863C25.7499 26.8138 26.307 25.8294 26.5327 24.7579C26.7584 23.6862 26.6426 22.5755 26.1998 21.5661C25.7571 20.5566 25.0075 19.6939 24.0456 19.0869C23.0837 18.4799 21.9527 18.1559 20.7959 18.1559C19.2446 18.1559 17.7569 18.7379 16.6599 19.7739C15.563 20.8099 14.9467 22.215 14.9467 23.6801Z" fill="url(#paint4_linear_0_496)"/>
</g>
<defs>
<linearGradient id="paint0_linear_0_496" x1="23.3444" y1="39.9903" x2="23.6238" y2="26.2109" gradientUnits="userSpaceOnUse">
<stop stop-color="#F35F2F"/>
<stop offset="1" stop-color="#F35F2F" stop-opacity="0.75"/>
</linearGradient>
<linearGradient id="paint1_linear_0_496" x1="15.3184" y1="33.3415" x2="17.5663" y2="5.03083" gradientUnits="userSpaceOnUse">
<stop stop-color="#F35F2F"/>
<stop offset="1" stop-color="#F35F2F" stop-opacity="0.75"/>
</linearGradient>
<linearGradient id="paint2_linear_0_496" x1="29.219" y1="33.3415" x2="31.5901" y2="5.05107" gradientUnits="userSpaceOnUse">
<stop stop-color="#F35F2F"/>
<stop offset="1" stop-color="#F35F2F" stop-opacity="0.75"/>
</linearGradient>
<linearGradient id="paint3_linear_0_496" x1="25.3255" y1="54.7383" x2="28.838" y2="-10.3213" gradientUnits="userSpaceOnUse">
<stop stop-color="#F35F2F"/>
<stop offset="1" stop-color="#F35F2F" stop-opacity="0.75"/>
</linearGradient>
<linearGradient id="paint4_linear_0_496" x1="22.0695" y1="31.1166" x2="22.7861" y2="15.5264" gradientUnits="userSpaceOnUse">
<stop stop-color="#F35F2F"/>
<stop offset="1" stop-color="#F35F2F" stop-opacity="0.75"/>
</linearGradient>
</defs>
</svg>
