<svg width="32" height="33" viewBox="0 0 32 33" fill="none" xmlns="http://www.w3.org/2000/svg">
<path fill-rule="evenodd" clip-rule="evenodd" d="M16 0.608398C7.16344 0.608398 0 7.77184 0 16.6084C0 25.445 7.16344 32.6084 16 32.6084C24.8366 32.6084 32 25.445 32 16.6084C32 7.77184 24.8366 0.608398 16 0.608398ZM15.5544 14.1666L15.5208 13.613C15.4201 12.1781 16.3042 10.8674 17.7032 10.359C18.218 10.1782 19.091 10.1556 19.6617 10.3138C19.8856 10.3816 20.3108 10.6076 20.613 10.8109L21.1614 11.1838L21.7658 10.9917C22.1015 10.89 22.5492 10.7205 22.7506 10.6076C22.9409 10.5059 23.1088 10.4494 23.1088 10.4833C23.1088 10.6753 22.6947 11.3307 22.3477 11.6922C21.8777 12.2007 22.012 12.2459 22.9633 11.9069C23.534 11.7148 23.5452 11.7148 23.4333 11.9295C23.3662 12.0425 23.0192 12.4379 22.6499 12.7995C22.0232 13.4209 21.9896 13.4887 21.9896 14.0085C21.9896 14.8107 21.6091 16.4829 21.2286 17.3981C20.5235 19.1155 19.0126 20.8894 17.5017 21.782C15.3753 23.0361 12.5438 23.3525 10.16 22.6181C9.36539 22.3695 8.00001 21.7368 8.00001 21.6238C8.00001 21.5899 8.4141 21.5447 8.91773 21.5334C9.96974 21.5108 11.0218 21.217 11.9171 20.6973L12.5214 20.3357L11.8276 20.0985C10.8427 19.7595 9.95855 18.9799 9.73472 18.2455C9.66757 18.0082 9.68995 17.9969 10.3167 17.9969L10.9658 17.9856L10.4174 17.7257C9.76829 17.3981 9.17514 16.8444 8.88415 16.2795C8.67151 15.8727 8.40291 14.8446 8.48125 14.7655C8.50364 14.7316 8.73866 14.7994 9.00726 14.8898C9.77949 15.1722 9.88021 15.1044 9.43254 14.6299C8.59317 13.7712 8.33576 12.4944 8.73866 11.2855L8.92892 10.7431L9.66757 11.4776C11.1784 12.9577 12.9579 13.839 14.9948 14.0989L15.5544 14.1666Z" fill="#646464"/>
</svg>
