<svg width="32" height="33" viewBox="0 0 32 33" fill="none" xmlns="http://www.w3.org/2000/svg">
<path fill-rule="evenodd" clip-rule="evenodd" d="M16 0.608398C7.16344 0.608398 0 7.77184 0 16.6084C0 25.445 7.16344 32.6084 16 32.6084C24.8366 32.6084 32 25.445 32 16.6084C32 7.77184 24.8366 0.608398 16 0.608398ZM22.6679 11.1087C23.4022 11.3102 23.9805 11.904 24.1768 12.658C24.5335 14.0245 24.5335 16.8758 24.5335 16.8758C24.5335 16.8758 24.5335 19.7271 24.1768 21.0937C23.9805 21.8477 23.4022 22.4415 22.6679 22.6431C21.3371 23.0092 16.0001 23.0092 16.0001 23.0092C16.0001 23.0092 10.6632 23.0092 9.3323 22.6431C8.59795 22.4415 8.01962 21.8477 7.82335 21.0937C7.4668 19.7271 7.4668 16.8758 7.4668 16.8758C7.4668 16.8758 7.4668 14.0245 7.82335 12.658C8.01962 11.904 8.59795 11.3102 9.3323 11.1087C10.6632 10.7425 16.0001 10.7425 16.0001 10.7425C16.0001 10.7425 21.3371 10.7425 22.6679 11.1087Z" fill="#646464"/>
<path fill-rule="evenodd" clip-rule="evenodd" d="M14.3999 19.8076V14.4742L18.6666 17.141L14.3999 19.8076Z" fill="#646464"/>
</svg>
