<svg width="196" height="47" viewBox="0 0 196 47" fill="none" xmlns="http://www.w3.org/2000/svg">
<path d="M51.652 32C51.4787 32 51.3313 31.9393 51.21 31.818C51.0887 31.6967 51.028 31.5493 51.028 31.376V14.45C51.028 14.2593 51.0887 14.1033 51.21 13.982C51.3313 13.8607 51.4787 13.8 51.652 13.8H57.996C59.7467 13.8 61.1853 14.0687 62.312 14.606C63.456 15.1433 64.314 15.9407 64.886 16.998C65.4753 18.0553 65.7787 19.3467 65.796 20.872C65.8307 21.6347 65.848 22.3107 65.848 22.9C65.848 23.4893 65.8307 24.1567 65.796 24.902C65.7613 26.514 65.4667 27.8487 64.912 28.906C64.3573 29.946 63.5167 30.726 62.39 31.246C61.2807 31.7487 59.8593 32 58.126 32H51.652ZM54.642 29.01H57.996C58.9667 29.01 59.7553 28.8713 60.362 28.594C60.9687 28.3167 61.4107 27.8747 61.688 27.268C61.9827 26.644 62.1387 25.8293 62.156 24.824C62.1733 24.304 62.182 23.8533 62.182 23.472C62.1993 23.0733 62.1993 22.6833 62.182 22.302C62.182 21.9033 62.1733 21.4527 62.156 20.95C62.1213 19.5287 61.766 18.48 61.09 17.804C60.414 17.128 59.3393 16.79 57.866 16.79H54.642V29.01ZM69.9333 32C69.7599 32 69.6126 31.9393 69.4913 31.818C69.3699 31.6967 69.3093 31.5493 69.3093 31.376V14.45C69.3093 14.2593 69.3699 14.1033 69.4913 13.982C69.6126 13.8607 69.7599 13.8 69.9333 13.8H81.3733C81.5639 13.8 81.7199 13.8607 81.8413 13.982C81.9626 14.1033 82.0233 14.2593 82.0233 14.45V16.166C82.0233 16.3393 81.9626 16.4867 81.8413 16.608C81.7199 16.7293 81.5639 16.79 81.3733 16.79H72.8193V21.392H80.8013C80.9919 21.392 81.1479 21.4527 81.2693 21.574C81.3906 21.678 81.4513 21.8253 81.4513 22.016V23.628C81.4513 23.8187 81.3906 23.9747 81.2693 24.096C81.1479 24.2 80.9919 24.252 80.8013 24.252H72.8193V29.01H81.5813C81.7719 29.01 81.9279 29.0707 82.0493 29.192C82.1706 29.3133 82.2313 29.4693 82.2313 29.66V31.376C82.2313 31.5493 82.1706 31.6967 82.0493 31.818C81.9279 31.9393 81.7719 32 81.5813 32H69.9333ZM91.8011 32.26C90.1891 32.26 88.8371 32.026 87.7451 31.558C86.6704 31.0727 85.8471 30.4487 85.2751 29.686C84.7204 28.906 84.4257 28.0913 84.3911 27.242C84.3911 27.086 84.4431 26.956 84.5471 26.852C84.6511 26.748 84.7811 26.696 84.9371 26.696H87.2511C87.4764 26.696 87.6411 26.748 87.7451 26.852C87.8664 26.9387 87.9704 27.0513 88.0571 27.19C88.1611 27.5193 88.3604 27.8487 88.6551 28.178C88.9497 28.49 89.3484 28.75 89.8511 28.958C90.3711 29.166 91.0211 29.27 91.8011 29.27C93.0491 29.27 93.9764 29.062 94.5831 28.646C95.2071 28.23 95.5191 27.6667 95.5191 26.956C95.5191 26.4533 95.3544 26.0547 95.0251 25.76C94.6957 25.448 94.1844 25.1707 93.4911 24.928C92.8151 24.668 91.9137 24.3993 90.7871 24.122C89.4871 23.81 88.3951 23.4373 87.5111 23.004C86.6444 22.5533 85.9857 21.99 85.5351 21.314C85.1017 20.638 84.8851 19.78 84.8851 18.74C84.8851 17.7347 85.1537 16.842 85.6911 16.062C86.2457 15.282 87.0257 14.6667 88.0311 14.216C89.0537 13.7653 90.2671 13.54 91.6711 13.54C92.7977 13.54 93.7944 13.696 94.6611 14.008C95.5277 14.3027 96.2471 14.7013 96.8191 15.204C97.3911 15.6893 97.8244 16.218 98.1191 16.79C98.4311 17.3447 98.5957 17.8907 98.6131 18.428C98.6131 18.5667 98.5611 18.6967 98.4571 18.818C98.3704 18.922 98.2404 18.974 98.0671 18.974H95.6491C95.5104 18.974 95.3717 18.9393 95.2331 18.87C95.0944 18.8007 94.9817 18.6707 94.8951 18.48C94.7911 17.9427 94.4531 17.4833 93.8811 17.102C93.3091 16.7207 92.5724 16.53 91.6711 16.53C90.7351 16.53 89.9811 16.7033 89.4091 17.05C88.8371 17.3967 88.5511 17.934 88.5511 18.662C88.5511 19.1473 88.6897 19.5547 88.9671 19.884C89.2617 20.196 89.7211 20.4733 90.3451 20.716C90.9864 20.9587 91.8271 21.2187 92.8671 21.496C94.3404 21.8253 95.5451 22.2067 96.4811 22.64C97.4171 23.0733 98.1017 23.628 98.5351 24.304C98.9684 24.9627 99.1851 25.8033 99.1851 26.826C99.1851 27.97 98.8731 28.9493 98.2491 29.764C97.6424 30.5613 96.7844 31.1767 95.6751 31.61C94.5657 32.0433 93.2744 32.26 91.8011 32.26ZM102.789 32C102.615 32 102.468 31.9393 102.347 31.818C102.225 31.6967 102.165 31.5493 102.165 31.376V14.424C102.165 14.2507 102.225 14.1033 102.347 13.982C102.468 13.8607 102.615 13.8 102.789 13.8H105.233C105.423 13.8 105.571 13.8607 105.675 13.982C105.796 14.1033 105.857 14.2507 105.857 14.424V31.376C105.857 31.5493 105.796 31.6967 105.675 31.818C105.571 31.9393 105.423 32 105.233 32H102.789ZM117.006 32.26C115.412 32.26 114.051 31.9827 112.924 31.428C111.815 30.8733 110.948 30.076 110.324 29.036C109.718 27.9787 109.388 26.722 109.336 25.266C109.319 24.5207 109.31 23.7233 109.31 22.874C109.31 22.0073 109.319 21.1927 109.336 20.43C109.388 18.9913 109.718 17.7607 110.324 16.738C110.948 15.7153 111.824 14.9267 112.95 14.372C114.094 13.8173 115.446 13.54 117.006 13.54C118.272 13.54 119.381 13.7133 120.334 14.06C121.288 14.3893 122.076 14.8227 122.7 15.36C123.342 15.88 123.818 16.4433 124.13 17.05C124.46 17.6567 124.633 18.22 124.65 18.74C124.668 18.896 124.624 19.026 124.52 19.13C124.416 19.234 124.278 19.286 124.104 19.286H121.426C121.253 19.286 121.123 19.2513 121.036 19.182C120.95 19.1127 120.872 19.0087 120.802 18.87C120.664 18.506 120.447 18.1507 120.152 17.804C119.858 17.44 119.459 17.1367 118.956 16.894C118.454 16.6513 117.804 16.53 117.006 16.53C115.828 16.53 114.883 16.842 114.172 17.466C113.479 18.09 113.106 19.1213 113.054 20.56C113.002 22.068 113.002 23.5933 113.054 25.136C113.106 26.6093 113.488 27.6667 114.198 28.308C114.926 28.9493 115.88 29.27 117.058 29.27C117.838 29.27 118.532 29.1313 119.138 28.854C119.762 28.5767 120.248 28.1433 120.594 27.554C120.958 26.9647 121.14 26.2107 121.14 25.292V24.486H117.968C117.795 24.486 117.648 24.4253 117.526 24.304C117.405 24.1827 117.344 24.0267 117.344 23.836V22.458C117.344 22.2673 117.405 22.1113 117.526 21.99C117.648 21.8687 117.795 21.808 117.968 21.808H124.182C124.373 21.808 124.52 21.8687 124.624 21.99C124.746 22.1113 124.806 22.2673 124.806 22.458V25.188C124.806 26.644 124.486 27.9007 123.844 28.958C123.22 30.0153 122.319 30.83 121.14 31.402C119.979 31.974 118.601 32.26 117.006 32.26ZM128.763 32C128.59 32 128.443 31.9393 128.321 31.818C128.2 31.6967 128.139 31.5493 128.139 31.376V14.45C128.139 14.2593 128.2 14.1033 128.321 13.982C128.443 13.8607 128.59 13.8 128.763 13.8H130.765C131.008 13.8 131.181 13.8607 131.285 13.982C131.407 14.086 131.485 14.164 131.519 14.216L139.007 25.864V14.45C139.007 14.2593 139.059 14.1033 139.163 13.982C139.285 13.8607 139.441 13.8 139.631 13.8H141.815C142.006 13.8 142.162 13.8607 142.283 13.982C142.405 14.1033 142.465 14.2593 142.465 14.45V31.35C142.465 31.5407 142.405 31.6967 142.283 31.818C142.162 31.9393 142.015 32 141.841 32H139.813C139.571 32 139.397 31.9393 139.293 31.818C139.189 31.6967 139.111 31.6187 139.059 31.584L131.597 20.196V31.376C131.597 31.5493 131.537 31.6967 131.415 31.818C131.294 31.9393 131.138 32 130.947 32H128.763ZM146.132 32C145.959 32 145.811 31.9393 145.69 31.818C145.569 31.6967 145.508 31.5407 145.508 31.35V29.53C145.508 29.27 145.56 29.062 145.664 28.906C145.768 28.75 145.846 28.6373 145.898 28.568L154.946 16.868H146.392C146.201 16.868 146.045 16.8073 145.924 16.686C145.82 16.5647 145.768 16.4173 145.768 16.244V14.45C145.768 14.2593 145.82 14.1033 145.924 13.982C146.045 13.8607 146.201 13.8 146.392 13.8H158.82C159.011 13.8 159.167 13.8607 159.288 13.982C159.409 14.1033 159.47 14.2593 159.47 14.45V16.244C159.47 16.452 159.435 16.6253 159.366 16.764C159.297 16.9027 159.219 17.0327 159.132 17.154L150.266 28.906H159.106C159.297 28.906 159.453 28.9667 159.574 29.088C159.695 29.2093 159.756 29.3653 159.756 29.556V31.376C159.756 31.5493 159.695 31.6967 159.574 31.818C159.453 31.9393 159.297 32 159.106 32H146.132ZM169.64 32.26C168.028 32.26 166.658 31.9827 165.532 31.428C164.422 30.856 163.573 30.05 162.984 29.01C162.394 27.9527 162.065 26.6873 161.996 25.214C161.978 24.5033 161.97 23.7407 161.97 22.926C161.97 22.1113 161.978 21.3313 161.996 20.586C162.065 19.13 162.394 17.8733 162.984 16.816C163.59 15.7587 164.448 14.9527 165.558 14.398C166.684 13.826 168.045 13.54 169.64 13.54C170.818 13.54 171.876 13.696 172.812 14.008C173.748 14.32 174.545 14.7533 175.204 15.308C175.862 15.8453 176.374 16.478 176.738 17.206C177.102 17.934 177.292 18.7227 177.31 19.572C177.327 19.728 177.275 19.858 177.154 19.962C177.05 20.066 176.92 20.118 176.764 20.118H174.294C174.103 20.118 173.947 20.0747 173.826 19.988C173.704 19.884 173.618 19.7193 173.566 19.494C173.288 18.35 172.812 17.57 172.136 17.154C171.46 16.738 170.619 16.53 169.614 16.53C168.452 16.53 167.525 16.8593 166.832 17.518C166.138 18.1593 165.766 19.2253 165.714 20.716C165.662 22.1373 165.662 23.5933 165.714 25.084C165.766 26.5747 166.138 27.6493 166.832 28.308C167.525 28.9493 168.452 29.27 169.614 29.27C170.619 29.27 171.46 29.062 172.136 28.646C172.812 28.2127 173.288 27.4327 173.566 26.306C173.618 26.0633 173.704 25.8987 173.826 25.812C173.947 25.7253 174.103 25.682 174.294 25.682H176.764C176.92 25.682 177.05 25.734 177.154 25.838C177.275 25.942 177.327 26.072 177.31 26.228C177.292 27.0773 177.102 27.866 176.738 28.594C176.374 29.322 175.862 29.9633 175.204 30.518C174.545 31.0553 173.748 31.48 172.812 31.792C171.876 32.104 170.818 32.26 169.64 32.26ZM185.319 32C185.145 32 184.998 31.9393 184.877 31.818C184.755 31.6967 184.695 31.5493 184.695 31.376V25.5L178.559 14.632C178.541 14.5973 178.524 14.554 178.507 14.502C178.489 14.45 178.481 14.398 178.481 14.346C178.481 14.19 178.533 14.06 178.637 13.956C178.741 13.852 178.862 13.8 179.001 13.8H181.315C181.523 13.8 181.687 13.852 181.809 13.956C181.947 14.06 182.043 14.1727 182.095 14.294L186.515 21.86L190.909 14.294C190.978 14.1727 191.073 14.06 191.195 13.956C191.333 13.852 191.507 13.8 191.715 13.8H194.003C194.159 13.8 194.289 13.852 194.393 13.956C194.497 14.06 194.549 14.19 194.549 14.346C194.549 14.398 194.54 14.45 194.523 14.502C194.523 14.554 194.505 14.5973 194.471 14.632L188.335 25.5V31.376C188.335 31.5493 188.274 31.6967 188.153 31.818C188.031 31.9393 187.875 32 187.685 32H185.319Z" fill="#3D3D3F"/>
<g opacity="0.95">
<path d="M20.7972 31.4152C19.5321 31.4208 18.2838 31.1144 17.1546 30.521C16.0254 29.9276 15.0474 29.0642 14.3011 28.0015L9.09882 31.1099C9.29678 31.3473 9.53113 31.5489 9.79246 31.7066L19.0498 37.2573C19.5908 37.5448 20.1896 37.6947 20.7972 37.6947C21.4047 37.6947 22.0035 37.5448 22.5446 37.2573L31.8019 31.7066C32.0632 31.5489 32.2976 31.3473 32.4955 31.1099L27.3067 27.946C26.5647 29.0208 25.5872 29.8961 24.4551 30.4994C23.3231 31.1027 22.0691 31.4167 20.7972 31.4152Z" fill="url(#paint0_linear_0_57)"/>
<path d="M12.6529 23.0388C12.6577 21.0653 13.4247 19.1627 14.8074 17.6946C16.1901 16.2266 18.0915 15.296 20.1481 15.0807V9.09888C19.8361 9.16075 19.5359 9.26811 19.2582 9.4172L9.60759 14.7226C9.08305 15.0573 8.64689 15.5033 8.33331 16.0257C8.01967 16.548 7.83711 17.1325 7.79987 17.7334V28.3441C7.80416 28.6503 7.85563 28.9543 7.95279 29.2461L13.3761 26.2618C12.9018 25.2474 12.6555 24.1495 12.6529 23.0388Z" fill="url(#paint1_linear_0_57)"/>
<path d="M32.082 14.7189L22.9394 9.41701C22.6763 9.26798 22.3919 9.16068 22.0963 9.09888V15.0635C23.3383 15.2051 24.53 15.6381 25.5753 16.3278C26.6206 17.0174 27.4904 17.9443 28.1145 19.034C28.7387 20.1236 29.0998 21.3455 29.1688 22.6013C29.2378 23.857 29.0128 25.1115 28.5119 26.2638L33.6498 29.2461C33.7418 28.9544 33.7906 28.6507 33.7946 28.3448V17.741C33.7613 17.1382 33.5893 16.5515 33.2921 16.027C32.9948 15.5025 32.5807 15.0547 32.082 14.7189Z" fill="url(#paint2_linear_0_57)"/>
<path d="M38.7421 9.4049L23.6492 0.6761C22.7641 0.231497 21.7874 0 20.7971 0C19.8068 0 18.8302 0.231497 17.945 0.6761L2.85206 9.4049C2.02362 9.94536 1.33387 10.6733 0.838384 11.53C0.342958 12.3866 0.0557622 13.3479 0 14.3362V31.7937C0.0547224 32.7841 0.341398 33.7477 0.836824 34.6067C1.33225 35.4657 2.02258 36.196 2.85206 36.7387L17.945 45.4676C18.8302 45.9122 19.8068 46.1436 20.7971 46.1436C21.7874 46.1436 22.7641 45.9122 23.6492 45.4676L38.7421 36.7387C39.5716 36.196 40.2619 35.4657 40.7574 34.6067C41.2528 33.7477 41.5395 32.7841 41.5942 31.7937V14.3362C41.5384 13.3479 41.2512 12.3866 40.7558 11.53C40.2603 10.6733 39.5706 9.94536 38.7421 9.4049ZM36.8043 29.7857C36.76 30.5465 36.5382 31.2863 36.1566 31.9458C35.7751 32.6053 35.2444 33.166 34.6072 33.5832L22.9805 40.3039C22.3013 40.6473 21.5511 40.8262 20.7903 40.8262C20.0294 40.8262 19.2792 40.6473 18.6001 40.3039L6.98698 33.5832C6.34974 33.166 5.81909 32.6053 5.4376 31.9458C5.05603 31.2863 4.83422 30.5465 4.7899 29.7857V16.3579C4.83422 15.597 5.05603 14.8572 5.4376 14.1978C5.81909 13.5383 6.34974 12.9775 6.98698 12.5603L18.5864 5.83963C19.2655 5.49628 20.0157 5.31736 20.7766 5.31736C21.5375 5.31736 22.2877 5.49628 22.9669 5.83963L34.5936 12.5603C35.2333 12.976 35.7667 13.5361 36.1506 14.1957C36.5346 14.8552 36.7585 15.5959 36.8043 16.3579V29.7857Z" fill="url(#paint3_linear_0_57)"/>
<path d="M14.9467 23.0718C14.9467 24.1644 15.2897 25.2325 15.9324 26.1409C16.5751 27.0494 17.4887 27.7574 18.5575 28.1756C19.6263 28.5937 20.8024 28.703 21.9371 28.4899C23.0717 28.2768 24.1139 27.7507 24.9319 26.978C25.7499 26.2055 26.307 25.2212 26.5327 24.1496C26.7584 23.0779 26.6426 21.9672 26.1998 20.9578C25.7571 19.9484 25.0075 19.0856 24.0456 18.4786C23.0837 17.8716 21.9527 17.5476 20.7959 17.5476C19.2446 17.5476 17.7569 18.1296 16.6599 19.1656C15.563 20.2016 14.9467 21.6067 14.9467 23.0718Z" fill="url(#paint4_linear_0_57)"/>
</g>
<defs>
<linearGradient id="paint0_linear_0_57" x1="23.3444" y1="39.3819" x2="23.6238" y2="25.6025" gradientUnits="userSpaceOnUse">
<stop stop-color="#F35F2F"/>
<stop offset="1" stop-color="#F35F2F" stop-opacity="0.75"/>
</linearGradient>
<linearGradient id="paint1_linear_0_57" x1="15.3184" y1="32.7331" x2="17.5663" y2="4.42243" gradientUnits="userSpaceOnUse">
<stop stop-color="#F35F2F"/>
<stop offset="1" stop-color="#F35F2F" stop-opacity="0.75"/>
</linearGradient>
<linearGradient id="paint2_linear_0_57" x1="29.219" y1="32.7331" x2="31.5901" y2="4.44267" gradientUnits="userSpaceOnUse">
<stop stop-color="#F35F2F"/>
<stop offset="1" stop-color="#F35F2F" stop-opacity="0.75"/>
</linearGradient>
<linearGradient id="paint3_linear_0_57" x1="25.3255" y1="54.1299" x2="28.838" y2="-10.9297" gradientUnits="userSpaceOnUse">
<stop stop-color="#F35F2F"/>
<stop offset="1" stop-color="#F35F2F" stop-opacity="0.75"/>
</linearGradient>
<linearGradient id="paint4_linear_0_57" x1="22.0695" y1="30.5083" x2="22.7861" y2="14.9182" gradientUnits="userSpaceOnUse">
<stop stop-color="#F35F2F"/>
<stop offset="1" stop-color="#F35F2F" stop-opacity="0.75"/>
</linearGradient>
</defs>
</svg>
